<svg width="201" height="202" xmlns="http://www.w3.org/2000/svg" xmlns:xlink="http://www.w3.org/1999/xlink" xml:space="preserve" overflow="hidden"><g transform="translate(-292 -259)"><path d="M54.4375 75.375C54.4375 50.0406 75.1656 29.3125 100.5 29.3125 125.834 29.3125 146.563 50.0406 146.563 75.375 146.563 100.709 125.834 121.438 100.5 121.438 75.1656 121.438 54.4375 100.709 54.4375 75.375ZM159.125 75.375C159.125 43.1313 132.744 16.75 100.5 16.75 68.2562 16.75 41.875 43.1313 41.875 75.375 41.875 105.525 64.9063 130.441 94.2188 133.581L94.2188 154.938 77.4688 154.938 77.4688 167.5 94.2188 167.5 94.2188 184.25 106.781 184.25 106.781 167.5 123.531 167.5 123.531 154.938 106.781 154.938 106.781 133.581C136.094 130.441 159.125 105.525 159.125 75.375Z" fill="#F5F5F5" transform="matrix(1 0 0 1.00498 292 259)"/></g></svg>