<svg width="201" height="201" xmlns="http://www.w3.org/2000/svg" xmlns:xlink="http://www.w3.org/1999/xlink" xml:space="preserve" overflow="hidden"><g transform="translate(-472 -231)"><path d="M521.831 299.256C499.009 322.078 499.009 359.347 521.831 382.169 544.653 404.991 581.922 404.991 604.744 382.169 626.1 360.813 627.566 326.894 608.931 303.862L628.403 284.391 640.338 296.325 640.338 263.663 607.675 263.663 619.609 275.597 600.138 295.069C577.106 276.434 543.188 277.9 521.831 299.256ZM595.95 373.166C577.944 391.172 548.841 391.172 530.834 373.166 512.828 355.159 512.828 326.056 530.834 308.05 548.841 290.044 577.944 290.044 595.95 308.05 613.956 326.056 613.747 355.369 595.95 373.166Z" fill="#F5F5F5"/></g></svg>