<svg width="337" height="98" viewBox="0 0 337 98" fill="none" xmlns="http://www.w3.org/2000/svg">
<path d="M0.796875 21.9297C3.94792 20.888 6.90365 19.9245 9.66406 19.0391C12.4505 18.1536 15.3802 17.3203 18.4531 16.5391C21.526 15.7318 24.4688 15.0938 27.2812 14.625C29.4427 14.2604 31.6562 14.0781 33.9219 14.0781C37.6979 14.0781 40.1719 14.1823 41.3438 14.3906C43.1146 14.7292 44.7812 15.276 46.3438 16.0312C47.9323 16.7865 49.3385 17.8021 50.5625 19.0781C51.8125 20.3281 52.8281 21.8125 53.6094 23.5312C53.9219 24.2344 54.0781 24.9766 54.0781 25.7578C54.0781 28.6745 52.4766 32.2682 49.2734 36.5391C46.0964 40.8099 42.8932 44.5339 39.6641 47.7109C36.4609 50.888 34.0651 53.1667 32.4766 54.5469L39.5078 79.1953L29.2734 86.5781L11.3438 35.3672C11.2917 35.3672 11.0443 35.6146 10.6016 36.1094C10.1589 36.6042 9.57292 37.2552 8.84375 38.0625C8.14062 38.8438 7.69792 39.3255 7.51562 39.5078C7.4375 39.5078 7.17708 38.9479 6.73438 37.8281C6.31771 36.7083 5.74479 35.1589 5.01562 33.1797C4.3125 31.1745 3.51823 28.9609 2.63281 26.5391C1.72135 24.0911 1.10938 22.5547 0.796875 21.9297ZM26.0703 32.7891L29.2734 44.3125C30.888 42.6719 32.8932 40.4323 35.2891 37.5938C37.6849 34.7552 38.8828 32.6979 38.8828 31.4219C38.8828 30.9271 38.6745 30.6406 38.2578 30.5625C37.0859 30.3021 35.9271 30.1719 34.7812 30.1719C31.3438 30.1719 28.4401 31.0443 26.0703 32.7891ZM87.4141 41.6953C89.263 42.6849 90.7604 44.026 91.9062 45.7188C93.0781 47.3854 93.9245 49.2734 94.4453 51.3828C94.9922 53.4661 95.2656 55.6406 95.2656 57.9062C95.2656 59.7812 95.1094 61.5911 94.7969 63.3359C94.5104 65.0807 94.1068 66.6823 93.5859 68.1406C93.0651 69.599 92.4531 70.8359 91.75 71.8516C90.1094 74.2995 88.3516 76.4089 86.4766 78.1797C84.6016 79.9505 82.6875 81.3828 80.7344 82.4766C78.7812 83.5443 76.8411 84.3255 74.9141 84.8203C73.013 85.3411 71.125 85.6016 69.25 85.6016C67.0365 85.6016 64.9271 85.25 62.9219 84.5469C60.9427 83.8698 59.25 82.9714 57.8438 81.8516C55.526 79.9245 53.7161 77.3333 52.4141 74.0781C51.112 70.7969 50.4609 67.3333 50.4609 63.6875C50.4609 57.4115 52.2708 52.3464 55.8906 48.4922C58.9896 45.1849 62.1927 42.6979 65.5 41.0312C68.8073 39.3385 72.1927 38.4922 75.6562 38.4922C77.6875 38.4922 79.6406 38.7526 81.5156 39.2734C83.3906 39.7682 85.3568 40.5755 87.4141 41.6953ZM85.1094 48.2578C84.6667 50.237 83.7031 51.9818 82.2188 53.4922C80.7604 55.0026 79.3281 55.7578 77.9219 55.7578C77.2188 55.7578 76.5938 55.5755 76.0469 55.2109C75.2656 54.5859 74.875 53.4922 74.875 51.9297C74.875 50.7318 75.2656 49.5469 76.0469 48.375C76.8542 47.2031 78.1172 46.2786 79.8359 45.6016C78.1172 45.6016 76.4505 45.9271 74.8359 46.5781C73.2474 47.2292 71.8802 48.0755 70.7344 49.1172C69.5885 50.1328 68.6641 51.2917 67.9609 52.5938C67.2839 53.8698 66.9453 55.1589 66.9453 56.4609C66.9453 58.8828 68.0651 60.8099 70.3047 62.2422C72.388 63.5703 74.3672 64.2344 76.2422 64.2344C78.0911 64.2344 79.7318 63.6224 81.1641 62.3984C82.5964 61.1484 83.6901 59.5599 84.4453 57.6328C85.2005 55.6797 85.5781 53.7526 85.5781 51.8516C85.5781 50.5495 85.4219 49.3516 85.1094 48.2578ZM92.7812 18.7266L112.625 10.4062L115.516 55.5234L131.844 46.5781L148.797 49.1172L126.688 66.0703L147.508 81.7734L148.445 97.4375L117.742 75.3672L118.719 94.5469L100.125 94.8984L96.6094 27.0469L90.8672 28.3359L92.7812 18.7266ZM179.984 62.3984L189.398 73.7656C188.643 75.9531 186.846 77.9583 184.008 79.7812C181.195 81.6042 177.836 83.0365 173.93 84.0781C170.049 85.1458 166.169 85.6797 162.289 85.6797C158.852 85.6797 155.779 85.224 153.07 84.3125C150.388 83.401 148.318 82.0208 146.859 80.1719C144.333 76.9948 143.07 72.9323 143.07 67.9844C143.07 64.0781 143.773 60.237 145.18 56.4609C146.612 52.6589 148.122 50.0026 149.711 48.4922C151.612 46.6953 153.669 45.1979 155.883 44C158.122 42.8021 160.44 41.9036 162.836 41.3047C165.232 40.7057 167.693 40.4062 170.219 40.4062C173.526 40.4062 176.664 40.9401 179.633 42.0078C182.628 43.0495 185.245 44.5729 187.484 46.5781L166.039 72.1641C167.94 72.1641 169.737 71.7734 171.43 70.9922C173.148 70.1849 174.724 69.0521 176.156 67.5938C177.589 66.1094 178.865 64.3776 179.984 62.3984ZM169.164 53.2969C167.888 52.6458 166.586 52.3203 165.258 52.3203C163.852 52.3203 162.484 52.6068 161.156 53.1797C159.854 53.7526 158.93 54.4297 158.383 55.2109C156.768 57.2943 155.961 59.5859 155.961 62.0859C155.961 62.9974 156.052 63.8698 156.234 64.7031C156.417 65.5365 156.729 66.6823 157.172 68.1406L169.164 53.2969ZM149.086 25.1328L169.906 13.6094L178.852 27.3594L153.578 32.1641L149.086 25.1328ZM213.906 45.7578C212.474 45.9401 211.055 46.3958 209.648 47.125C208.268 47.8542 207.083 48.7135 206.094 49.7031C205.104 50.6927 204.323 51.7865 203.75 52.9844C203.203 54.1562 202.93 55.3151 202.93 56.4609C202.93 58.8307 204.049 60.7578 206.289 62.2422C208.268 63.5703 210.273 64.2344 212.305 64.2344C212.695 64.2344 213.229 64.1823 213.906 64.0781V55.7578C213.203 55.7578 212.578 55.5755 212.031 55.2109C211.25 54.5859 210.859 53.388 210.859 51.6172C210.859 49.0651 211.875 47.112 213.906 45.7578ZM213.555 7.82812L229.883 0.484375L230.859 53.375C231.068 54.7292 231.172 56.2656 231.172 57.9844C231.172 59.4948 231.12 60.6146 231.016 61.3438L231.484 85.2891L213.906 86.2266V83.8438C211.042 85.0156 208.151 85.6016 205.234 85.6016C202.995 85.6016 200.885 85.263 198.906 84.5859C196.953 83.9089 195.26 82.9974 193.828 81.8516C191.51 79.9245 189.701 77.3333 188.398 74.0781C187.096 70.7969 186.445 67.3333 186.445 63.6875C186.445 57.4115 188.255 52.3464 191.875 48.4922C195 45.2109 198.216 42.724 201.523 41.0312C204.857 39.3385 208.255 38.4922 211.719 38.4922C212.682 38.4922 213.411 38.5182 213.906 38.5703L213.555 7.82812ZM267.984 62.3984L277.398 73.7656C276.643 75.9531 274.846 77.9583 272.008 79.7812C269.195 81.6042 265.836 83.0365 261.93 84.0781C258.049 85.1458 254.169 85.6797 250.289 85.6797C246.852 85.6797 243.779 85.224 241.07 84.3125C238.388 83.401 236.318 82.0208 234.859 80.1719C232.333 76.9948 231.07 72.9323 231.07 67.9844C231.07 64.0781 231.773 60.237 233.18 56.4609C234.612 52.6589 236.122 50.0026 237.711 48.4922C239.612 46.6953 241.669 45.1979 243.883 44C246.122 42.8021 248.44 41.9036 250.836 41.3047C253.232 40.7057 255.693 40.4062 258.219 40.4062C261.526 40.4062 264.664 40.9401 267.633 42.0078C270.628 43.0495 273.245 44.5729 275.484 46.5781L254.039 72.1641C255.94 72.1641 257.737 71.7734 259.43 70.9922C261.148 70.1849 262.724 69.0521 264.156 67.5938C265.589 66.1094 266.865 64.3776 267.984 62.3984ZM257.164 53.2969C255.888 52.6458 254.586 52.3203 253.258 52.3203C251.852 52.3203 250.484 52.6068 249.156 53.1797C247.854 53.7526 246.93 54.4297 246.383 55.2109C244.768 57.2943 243.961 59.5859 243.961 62.0859C243.961 62.9974 244.052 63.8698 244.234 64.7031C244.417 65.5365 244.729 66.6823 245.172 68.1406L257.164 53.2969ZM303.977 76.5781L294.523 88.8047L274.367 89.4297L293.898 63.6094L271.828 35.0547L293.234 35.9922L303.977 50.1719L314.68 35.9922L336.125 35.0547L314.055 63.6094L333.586 89.4297L313.391 88.8047L303.977 76.5781Z" fill="#F5F5F5"/>
</svg>
